<?xml version="1.0" encoding="UTF-8" standalone="no"?>
<!-- Created with Inkscape (http://www.inkscape.org/) -->

<svg
   width="64.865616mm"
   height="62.299858mm"
   viewBox="0 0 64.865615 62.299858"
   version="1.1"
   id="svg1"
   xml:space="preserve"
   xmlns="http://www.w3.org/2000/svg"
   xmlns:svg="http://www.w3.org/2000/svg"><defs
     id="defs1" /><g
     id="g1"
     transform="matrix(0.26458333,0,0,0.26458335,-72.56707,-54.000413)"><path
       id="path1"
       d="M 0,0 H 100.063"
       style="fill:none;stroke:#231f20;stroke-width:0.25;stroke-linecap:butt;stroke-linejoin:miter;stroke-miterlimit:10;stroke-dasharray:none;stroke-opacity:1"
       transform="matrix(1.3333333,0,0,-1.3333333,278.29693,225.33253)" /><path
       id="path2"
       d="M 0,0 H 26.079"
       style="fill:none;stroke:#231f20;stroke-width:0.25;stroke-linecap:butt;stroke-linejoin:miter;stroke-miterlimit:10;stroke-dasharray:none;stroke-opacity:1"
       transform="matrix(1.3333333,0,0,-1.3333333,411.71427,225.33253)" /><path
       id="path3"
       d="M 0,0 H 26.079"
       style="fill:none;stroke:#231f20;stroke-width:0.25;stroke-linecap:butt;stroke-linejoin:miter;stroke-miterlimit:10;stroke-dasharray:none;stroke-opacity:1"
       transform="matrix(1.3333333,0,0,-1.3333333,446.48587,225.33253)" /><path
       id="path4"
       d="M 0,0 H 25.795"
       style="fill:none;stroke:#231f20;stroke-width:0.25;stroke-linecap:butt;stroke-linejoin:miter;stroke-miterlimit:10;stroke-dasharray:none;stroke-opacity:1"
       transform="matrix(1.3333333,0,0,-1.3333333,481.2576,225.33253)" /><path
       id="path5"
       d="M 0,0 V 14.332"
       style="fill:none;stroke:#231f20;stroke-width:0.25;stroke-linecap:butt;stroke-linejoin:miter;stroke-miterlimit:10;stroke-dasharray:none;stroke-opacity:1"
       transform="matrix(1.3333333,0,0,-1.3333333,411.71427,278.7628)" /><path
       id="path6"
       d="M 0,0 V 14.332"
       style="fill:none;stroke:#231f20;stroke-width:0.25;stroke-linecap:butt;stroke-linejoin:miter;stroke-miterlimit:10;stroke-dasharray:none;stroke-opacity:1"
       transform="matrix(1.3333333,0,0,-1.3333333,446.48587,278.7628)" /><path
       id="path7"
       d="M 0,0 V 14.332"
       style="fill:none;stroke:#231f20;stroke-width:0.25;stroke-linecap:butt;stroke-linejoin:miter;stroke-miterlimit:10;stroke-dasharray:none;stroke-opacity:1"
       transform="matrix(1.3333333,0,0,-1.3333333,481.2576,278.7628)" /><path
       id="path8"
       d="M 0,0 H 100.063"
       style="fill:none;stroke:#231f20;stroke-width:0.25;stroke-linecap:butt;stroke-linejoin:miter;stroke-miterlimit:10;stroke-dasharray:none;stroke-opacity:1"
       transform="matrix(1.3333333,0,0,-1.3333333,278.29693,278.92947)" /><path
       id="path9"
       d="M 0,0 H 26.079"
       style="fill:none;stroke:#231f20;stroke-width:0.25;stroke-linecap:butt;stroke-linejoin:miter;stroke-miterlimit:10;stroke-dasharray:none;stroke-opacity:1"
       transform="matrix(1.3333333,0,0,-1.3333333,411.71427,278.92947)" /><path
       id="path10"
       d="M 0,0 V 10.522"
       style="fill:none;stroke:#231f20;stroke-width:0.25;stroke-linecap:butt;stroke-linejoin:miter;stroke-miterlimit:10;stroke-dasharray:none;stroke-opacity:1"
       transform="matrix(1.3333333,0,0,-1.3333333,411.71427,293.12493)" /><path
       id="path11"
       d="M 0,0 H 26.079"
       style="fill:none;stroke:#231f20;stroke-width:0.25;stroke-linecap:butt;stroke-linejoin:miter;stroke-miterlimit:10;stroke-dasharray:none;stroke-opacity:1"
       transform="matrix(1.3333333,0,0,-1.3333333,446.48587,278.92947)" /><path
       id="path12"
       d="M 0,0 V 10.522"
       style="fill:none;stroke:#231f20;stroke-width:0.25;stroke-linecap:butt;stroke-linejoin:miter;stroke-miterlimit:10;stroke-dasharray:none;stroke-opacity:1"
       transform="matrix(1.3333333,0,0,-1.3333333,446.48587,293.12493)" /><path
       id="path13"
       d="M 0,0 H 25.795"
       style="fill:none;stroke:#231f20;stroke-width:0.25;stroke-linecap:butt;stroke-linejoin:miter;stroke-miterlimit:10;stroke-dasharray:none;stroke-opacity:1"
       transform="matrix(1.3333333,0,0,-1.3333333,481.2576,278.92947)" /><path
       id="path14"
       d="M 0,0 V 10.522"
       style="fill:none;stroke:#231f20;stroke-width:0.25;stroke-linecap:butt;stroke-linejoin:miter;stroke-miterlimit:10;stroke-dasharray:none;stroke-opacity:1"
       transform="matrix(1.3333333,0,0,-1.3333333,481.2576,293.12493)" /><path
       id="path15"
       d="M 0,0 H 100.063"
       style="fill:none;stroke:#231f20;stroke-width:0.25;stroke-linecap:butt;stroke-linejoin:miter;stroke-miterlimit:10;stroke-dasharray:none;stroke-opacity:1"
       transform="matrix(1.3333333,0,0,-1.3333333,278.29693,293.2916)" /><path
       id="path16"
       d="M 0,0 H 26.079"
       style="fill:none;stroke:#231f20;stroke-width:0.25;stroke-linecap:butt;stroke-linejoin:miter;stroke-miterlimit:10;stroke-dasharray:none;stroke-opacity:1"
       transform="matrix(1.3333333,0,0,-1.3333333,411.71427,293.2916)" /><path
       id="path17"
       d="M 0,0 V 10.522"
       style="fill:none;stroke:#231f20;stroke-width:0.25;stroke-linecap:butt;stroke-linejoin:miter;stroke-miterlimit:10;stroke-dasharray:none;stroke-opacity:1"
       transform="matrix(1.3333333,0,0,-1.3333333,411.71427,307.48707)" /><path
       id="path18"
       d="M 0,0 H 26.079"
       style="fill:none;stroke:#231f20;stroke-width:0.25;stroke-linecap:butt;stroke-linejoin:miter;stroke-miterlimit:10;stroke-dasharray:none;stroke-opacity:1"
       transform="matrix(1.3333333,0,0,-1.3333333,446.48587,293.2916)" /><path
       id="path19"
       d="M 0,0 V 10.522"
       style="fill:none;stroke:#231f20;stroke-width:0.25;stroke-linecap:butt;stroke-linejoin:miter;stroke-miterlimit:10;stroke-dasharray:none;stroke-opacity:1"
       transform="matrix(1.3333333,0,0,-1.3333333,446.48587,307.48707)" /><path
       id="path20"
       d="M 0,0 H 25.795"
       style="fill:none;stroke:#231f20;stroke-width:0.25;stroke-linecap:butt;stroke-linejoin:miter;stroke-miterlimit:10;stroke-dasharray:none;stroke-opacity:1"
       transform="matrix(1.3333333,0,0,-1.3333333,481.2576,293.2916)" /><path
       id="path21"
       d="M 0,0 V 10.522"
       style="fill:none;stroke:#231f20;stroke-width:0.25;stroke-linecap:butt;stroke-linejoin:miter;stroke-miterlimit:10;stroke-dasharray:none;stroke-opacity:1"
       transform="matrix(1.3333333,0,0,-1.3333333,481.2576,307.48707)" /><path
       id="path22"
       d="M 0,0 H 100.063"
       style="fill:none;stroke:#231f20;stroke-width:0.25;stroke-linecap:butt;stroke-linejoin:miter;stroke-miterlimit:10;stroke-dasharray:none;stroke-opacity:1"
       transform="matrix(1.3333333,0,0,-1.3333333,278.29693,307.65373)" /><path
       id="path23"
       d="M 0,0 H 26.079"
       style="fill:none;stroke:#231f20;stroke-width:0.25;stroke-linecap:butt;stroke-linejoin:miter;stroke-miterlimit:10;stroke-dasharray:none;stroke-opacity:1"
       transform="matrix(1.3333333,0,0,-1.3333333,411.71427,307.65373)" /><path
       id="path24"
       d="M 0,0 V 10.522"
       style="fill:none;stroke:#231f20;stroke-width:0.25;stroke-linecap:butt;stroke-linejoin:miter;stroke-miterlimit:10;stroke-dasharray:none;stroke-opacity:1"
       transform="matrix(1.3333333,0,0,-1.3333333,411.71427,321.84933)" /><path
       id="path25"
       d="M 0,0 H 26.079"
       style="fill:none;stroke:#231f20;stroke-width:0.25;stroke-linecap:butt;stroke-linejoin:miter;stroke-miterlimit:10;stroke-dasharray:none;stroke-opacity:1"
       transform="matrix(1.3333333,0,0,-1.3333333,446.48587,307.65373)" /><path
       id="path26"
       d="M 0,0 V 10.522"
       style="fill:none;stroke:#231f20;stroke-width:0.25;stroke-linecap:butt;stroke-linejoin:miter;stroke-miterlimit:10;stroke-dasharray:none;stroke-opacity:1"
       transform="matrix(1.3333333,0,0,-1.3333333,446.48587,321.84933)" /><path
       id="path27"
       d="M 0,0 H 25.795"
       style="fill:none;stroke:#231f20;stroke-width:0.25;stroke-linecap:butt;stroke-linejoin:miter;stroke-miterlimit:10;stroke-dasharray:none;stroke-opacity:1"
       transform="matrix(1.3333333,0,0,-1.3333333,481.2576,307.65373)" /><path
       id="path28"
       d="M 0,0 V 10.522"
       style="fill:none;stroke:#231f20;stroke-width:0.25;stroke-linecap:butt;stroke-linejoin:miter;stroke-miterlimit:10;stroke-dasharray:none;stroke-opacity:1"
       transform="matrix(1.3333333,0,0,-1.3333333,481.2576,321.84933)" /><path
       id="path29"
       d="M 0,0 H 100.063"
       style="fill:none;stroke:#231f20;stroke-width:0.25;stroke-linecap:butt;stroke-linejoin:miter;stroke-miterlimit:10;stroke-dasharray:none;stroke-opacity:1"
       transform="matrix(1.3333333,0,0,-1.3333333,278.29693,322.016)" /><path
       id="path30"
       d="M 0,0 H 26.079"
       style="fill:none;stroke:#231f20;stroke-width:0.25;stroke-linecap:butt;stroke-linejoin:miter;stroke-miterlimit:10;stroke-dasharray:none;stroke-opacity:1"
       transform="matrix(1.3333333,0,0,-1.3333333,411.71427,322.016)" /><path
       id="path31"
       d="M 0,0 V 10.522"
       style="fill:none;stroke:#231f20;stroke-width:0.25;stroke-linecap:butt;stroke-linejoin:miter;stroke-miterlimit:10;stroke-dasharray:none;stroke-opacity:1"
       transform="matrix(1.3333333,0,0,-1.3333333,411.71427,336.2116)" /><path
       id="path32"
       d="M 0,0 H 26.079"
       style="fill:none;stroke:#231f20;stroke-width:0.25;stroke-linecap:butt;stroke-linejoin:miter;stroke-miterlimit:10;stroke-dasharray:none;stroke-opacity:1"
       transform="matrix(1.3333333,0,0,-1.3333333,446.48587,322.016)" /><path
       id="path33"
       d="M 0,0 V 10.522"
       style="fill:none;stroke:#231f20;stroke-width:0.25;stroke-linecap:butt;stroke-linejoin:miter;stroke-miterlimit:10;stroke-dasharray:none;stroke-opacity:1"
       transform="matrix(1.3333333,0,0,-1.3333333,446.48587,336.2116)" /><path
       id="path34"
       d="M 0,0 H 25.795"
       style="fill:none;stroke:#231f20;stroke-width:0.25;stroke-linecap:butt;stroke-linejoin:miter;stroke-miterlimit:10;stroke-dasharray:none;stroke-opacity:1"
       transform="matrix(1.3333333,0,0,-1.3333333,481.2576,322.016)" /><path
       id="path35"
       d="M 0,0 V 10.522"
       style="fill:none;stroke:#231f20;stroke-width:0.25;stroke-linecap:butt;stroke-linejoin:miter;stroke-miterlimit:10;stroke-dasharray:none;stroke-opacity:1"
       transform="matrix(1.3333333,0,0,-1.3333333,481.2576,336.2116)" /><path
       id="path36"
       d="M 0,0 H 100.063"
       style="fill:none;stroke:#231f20;stroke-width:0.25;stroke-linecap:butt;stroke-linejoin:miter;stroke-miterlimit:10;stroke-dasharray:none;stroke-opacity:1"
       transform="matrix(1.3333333,0,0,-1.3333333,278.29693,336.37827)" /><path
       id="path37"
       d="M 0,0 H 26.079"
       style="fill:none;stroke:#231f20;stroke-width:0.25;stroke-linecap:butt;stroke-linejoin:miter;stroke-miterlimit:10;stroke-dasharray:none;stroke-opacity:1"
       transform="matrix(1.3333333,0,0,-1.3333333,411.71427,336.37827)" /><path
       id="path38"
       d="M 0,0 V 10.522"
       style="fill:none;stroke:#231f20;stroke-width:0.25;stroke-linecap:butt;stroke-linejoin:miter;stroke-miterlimit:10;stroke-dasharray:none;stroke-opacity:1"
       transform="matrix(1.3333333,0,0,-1.3333333,411.71427,350.57373)" /><path
       id="path39"
       d="M 0,0 H 26.079"
       style="fill:none;stroke:#231f20;stroke-width:0.25;stroke-linecap:butt;stroke-linejoin:miter;stroke-miterlimit:10;stroke-dasharray:none;stroke-opacity:1"
       transform="matrix(1.3333333,0,0,-1.3333333,446.48587,336.37827)" /><path
       id="path40"
       d="M 0,0 V 10.522"
       style="fill:none;stroke:#231f20;stroke-width:0.25;stroke-linecap:butt;stroke-linejoin:miter;stroke-miterlimit:10;stroke-dasharray:none;stroke-opacity:1"
       transform="matrix(1.3333333,0,0,-1.3333333,446.48587,350.57373)" /><path
       id="path41"
       d="M 0,0 H 25.795"
       style="fill:none;stroke:#231f20;stroke-width:0.25;stroke-linecap:butt;stroke-linejoin:miter;stroke-miterlimit:10;stroke-dasharray:none;stroke-opacity:1"
       transform="matrix(1.3333333,0,0,-1.3333333,481.2576,336.37827)" /><path
       id="path42"
       d="M 0,0 V 10.522"
       style="fill:none;stroke:#231f20;stroke-width:0.25;stroke-linecap:butt;stroke-linejoin:miter;stroke-miterlimit:10;stroke-dasharray:none;stroke-opacity:1"
       transform="matrix(1.3333333,0,0,-1.3333333,481.2576,350.57373)" /><path
       id="path43"
       d="M 0,0 H 100.063"
       style="fill:none;stroke:#231f20;stroke-width:0.25;stroke-linecap:butt;stroke-linejoin:miter;stroke-miterlimit:10;stroke-dasharray:none;stroke-opacity:1"
       transform="matrix(1.3333333,0,0,-1.3333333,278.29693,350.7404)" /><path
       id="path44"
       d="M 0,0 H 26.079"
       style="fill:none;stroke:#231f20;stroke-width:0.25;stroke-linecap:butt;stroke-linejoin:miter;stroke-miterlimit:10;stroke-dasharray:none;stroke-opacity:1"
       transform="matrix(1.3333333,0,0,-1.3333333,411.71427,350.7404)" /><path
       id="path45"
       d="M 0,0 V 10.522"
       style="fill:none;stroke:#231f20;stroke-width:0.25;stroke-linecap:butt;stroke-linejoin:miter;stroke-miterlimit:10;stroke-dasharray:none;stroke-opacity:1"
       transform="matrix(1.3333333,0,0,-1.3333333,411.71427,364.936)" /><path
       id="path46"
       d="M 0,0 H 26.079"
       style="fill:none;stroke:#231f20;stroke-width:0.25;stroke-linecap:butt;stroke-linejoin:miter;stroke-miterlimit:10;stroke-dasharray:none;stroke-opacity:1"
       transform="matrix(1.3333333,0,0,-1.3333333,446.48587,350.7404)" /><path
       id="path47"
       d="M 0,0 V 10.522"
       style="fill:none;stroke:#231f20;stroke-width:0.25;stroke-linecap:butt;stroke-linejoin:miter;stroke-miterlimit:10;stroke-dasharray:none;stroke-opacity:1"
       transform="matrix(1.3333333,0,0,-1.3333333,446.48587,364.936)" /><path
       id="path48"
       d="M 0,0 H 25.795"
       style="fill:none;stroke:#231f20;stroke-width:0.25;stroke-linecap:butt;stroke-linejoin:miter;stroke-miterlimit:10;stroke-dasharray:none;stroke-opacity:1"
       transform="matrix(1.3333333,0,0,-1.3333333,481.2576,350.7404)" /><path
       id="path49"
       d="M 0,0 V 10.522"
       style="fill:none;stroke:#231f20;stroke-width:0.25;stroke-linecap:butt;stroke-linejoin:miter;stroke-miterlimit:10;stroke-dasharray:none;stroke-opacity:1"
       transform="matrix(1.3333333,0,0,-1.3333333,481.2576,364.936)" /><path
       id="path50"
       d="M 0,0 H 100.063"
       style="fill:none;stroke:#231f20;stroke-width:0.25;stroke-linecap:butt;stroke-linejoin:miter;stroke-miterlimit:10;stroke-dasharray:none;stroke-opacity:1"
       transform="matrix(1.3333333,0,0,-1.3333333,278.29693,365.10267)" /><path
       id="path51"
       d="M 0,0 H 26.079"
       style="fill:none;stroke:#231f20;stroke-width:0.25;stroke-linecap:butt;stroke-linejoin:miter;stroke-miterlimit:10;stroke-dasharray:none;stroke-opacity:1"
       transform="matrix(1.3333333,0,0,-1.3333333,411.71427,365.10267)" /><path
       id="path52"
       d="M 0,0 V 10.522"
       style="fill:none;stroke:#231f20;stroke-width:0.25;stroke-linecap:butt;stroke-linejoin:miter;stroke-miterlimit:10;stroke-dasharray:none;stroke-opacity:1"
       transform="matrix(1.3333333,0,0,-1.3333333,411.71427,379.29813)" /><path
       id="path53"
       d="M 0,0 H 26.079"
       style="fill:none;stroke:#231f20;stroke-width:0.25;stroke-linecap:butt;stroke-linejoin:miter;stroke-miterlimit:10;stroke-dasharray:none;stroke-opacity:1"
       transform="matrix(1.3333333,0,0,-1.3333333,446.48587,365.10267)" /><path
       id="path54"
       d="M 0,0 V 10.522"
       style="fill:none;stroke:#231f20;stroke-width:0.25;stroke-linecap:butt;stroke-linejoin:miter;stroke-miterlimit:10;stroke-dasharray:none;stroke-opacity:1"
       transform="matrix(1.3333333,0,0,-1.3333333,446.48587,379.29813)" /><path
       id="path55"
       d="M 0,0 H 25.795"
       style="fill:none;stroke:#231f20;stroke-width:0.25;stroke-linecap:butt;stroke-linejoin:miter;stroke-miterlimit:10;stroke-dasharray:none;stroke-opacity:1"
       transform="matrix(1.3333333,0,0,-1.3333333,481.2576,365.10267)" /><path
       id="path56"
       d="M 0,0 V 10.522"
       style="fill:none;stroke:#231f20;stroke-width:0.25;stroke-linecap:butt;stroke-linejoin:miter;stroke-miterlimit:10;stroke-dasharray:none;stroke-opacity:1"
       transform="matrix(1.3333333,0,0,-1.3333333,481.2576,379.29813)" /><path
       id="path57"
       d="M 0,0 H 100.063"
       style="fill:none;stroke:#231f20;stroke-width:0.25;stroke-linecap:butt;stroke-linejoin:miter;stroke-miterlimit:10;stroke-dasharray:none;stroke-opacity:1"
       transform="matrix(1.3333333,0,0,-1.3333333,278.29693,379.4648)" /><path
       id="path58"
       d="M 0,0 H 26.079"
       style="fill:none;stroke:#231f20;stroke-width:0.25;stroke-linecap:butt;stroke-linejoin:miter;stroke-miterlimit:10;stroke-dasharray:none;stroke-opacity:1"
       transform="matrix(1.3333333,0,0,-1.3333333,411.71427,379.4648)" /><path
       id="path59"
       d="M 0,0 V 10.522"
       style="fill:none;stroke:#231f20;stroke-width:0.25;stroke-linecap:butt;stroke-linejoin:miter;stroke-miterlimit:10;stroke-dasharray:none;stroke-opacity:1"
       transform="matrix(1.3333333,0,0,-1.3333333,411.71427,393.6604)" /><path
       id="path60"
       d="M 0,0 H 26.079"
       style="fill:none;stroke:#231f20;stroke-width:0.25;stroke-linecap:butt;stroke-linejoin:miter;stroke-miterlimit:10;stroke-dasharray:none;stroke-opacity:1"
       transform="matrix(1.3333333,0,0,-1.3333333,446.48587,379.4648)" /><path
       id="path61"
       d="M 0,0 V 10.522"
       style="fill:none;stroke:#231f20;stroke-width:0.25;stroke-linecap:butt;stroke-linejoin:miter;stroke-miterlimit:10;stroke-dasharray:none;stroke-opacity:1"
       transform="matrix(1.3333333,0,0,-1.3333333,446.48587,393.6604)" /><path
       id="path62"
       d="M 0,0 H 25.795"
       style="fill:none;stroke:#231f20;stroke-width:0.25;stroke-linecap:butt;stroke-linejoin:miter;stroke-miterlimit:10;stroke-dasharray:none;stroke-opacity:1"
       transform="matrix(1.3333333,0,0,-1.3333333,481.2576,379.4648)" /><path
       id="path63"
       d="M 0,0 V 10.522"
       style="fill:none;stroke:#231f20;stroke-width:0.25;stroke-linecap:butt;stroke-linejoin:miter;stroke-miterlimit:10;stroke-dasharray:none;stroke-opacity:1"
       transform="matrix(1.3333333,0,0,-1.3333333,481.2576,393.6604)" /><path
       id="path64"
       d="M 0,0 H 100.063"
       style="fill:none;stroke:#231f20;stroke-width:0.25;stroke-linecap:butt;stroke-linejoin:miter;stroke-miterlimit:10;stroke-dasharray:none;stroke-opacity:1"
       transform="matrix(1.3333333,0,0,-1.3333333,278.29693,393.82707)" /><path
       id="path65"
       d="M 0,0 H 26.079"
       style="fill:none;stroke:#231f20;stroke-width:0.25;stroke-linecap:butt;stroke-linejoin:miter;stroke-miterlimit:10;stroke-dasharray:none;stroke-opacity:1"
       transform="matrix(1.3333333,0,0,-1.3333333,411.71427,393.82707)" /><path
       id="path66"
       d="M 0,0 V 10.522"
       style="fill:none;stroke:#231f20;stroke-width:0.25;stroke-linecap:butt;stroke-linejoin:miter;stroke-miterlimit:10;stroke-dasharray:none;stroke-opacity:1"
       transform="matrix(1.3333333,0,0,-1.3333333,411.71427,408.02267)" /><path
       id="path67"
       d="M 0,0 H 26.079"
       style="fill:none;stroke:#231f20;stroke-width:0.25;stroke-linecap:butt;stroke-linejoin:miter;stroke-miterlimit:10;stroke-dasharray:none;stroke-opacity:1"
       transform="matrix(1.3333333,0,0,-1.3333333,446.48587,393.82707)" /><path
       id="path68"
       d="M 0,0 V 10.522"
       style="fill:none;stroke:#231f20;stroke-width:0.25;stroke-linecap:butt;stroke-linejoin:miter;stroke-miterlimit:10;stroke-dasharray:none;stroke-opacity:1"
       transform="matrix(1.3333333,0,0,-1.3333333,446.48587,408.02267)" /><path
       id="path69"
       d="M 0,0 H 25.795"
       style="fill:none;stroke:#231f20;stroke-width:0.25;stroke-linecap:butt;stroke-linejoin:miter;stroke-miterlimit:10;stroke-dasharray:none;stroke-opacity:1"
       transform="matrix(1.3333333,0,0,-1.3333333,481.2576,393.82707)" /><path
       id="path70"
       d="M 0,0 V 10.522"
       style="fill:none;stroke:#231f20;stroke-width:0.25;stroke-linecap:butt;stroke-linejoin:miter;stroke-miterlimit:10;stroke-dasharray:none;stroke-opacity:1"
       transform="matrix(1.3333333,0,0,-1.3333333,481.2576,408.02267)" /><path
       id="path71"
       d="M 0,0 H 100.063"
       style="fill:none;stroke:#231f20;stroke-width:0.25;stroke-linecap:butt;stroke-linejoin:miter;stroke-miterlimit:10;stroke-dasharray:none;stroke-opacity:1"
       transform="matrix(1.3333333,0,0,-1.3333333,278.29693,408.18933)" /><path
       id="path72"
       d="M 0,0 H 26.079"
       style="fill:none;stroke:#231f20;stroke-width:0.25;stroke-linecap:butt;stroke-linejoin:miter;stroke-miterlimit:10;stroke-dasharray:none;stroke-opacity:1"
       transform="matrix(1.3333333,0,0,-1.3333333,411.71427,408.18933)" /><path
       id="path73"
       d="M 0,0 V 10.147"
       style="fill:none;stroke:#231f20;stroke-width:0.25;stroke-linecap:butt;stroke-linejoin:miter;stroke-miterlimit:10;stroke-dasharray:none;stroke-opacity:1"
       transform="matrix(1.3333333,0,0,-1.3333333,411.71427,421.8848)" /><path
       id="path74"
       d="M 0,0 H 26.079"
       style="fill:none;stroke:#231f20;stroke-width:0.25;stroke-linecap:butt;stroke-linejoin:miter;stroke-miterlimit:10;stroke-dasharray:none;stroke-opacity:1"
       transform="matrix(1.3333333,0,0,-1.3333333,446.48587,408.18933)" /><path
       id="path75"
       d="M 0,0 V 10.147"
       style="fill:none;stroke:#231f20;stroke-width:0.25;stroke-linecap:butt;stroke-linejoin:miter;stroke-miterlimit:10;stroke-dasharray:none;stroke-opacity:1"
       transform="matrix(1.3333333,0,0,-1.3333333,446.48587,421.8848)" /><path
       id="path76"
       d="M 0,0 H 25.795"
       style="fill:none;stroke:#231f20;stroke-width:0.25;stroke-linecap:butt;stroke-linejoin:miter;stroke-miterlimit:10;stroke-dasharray:none;stroke-opacity:1"
       transform="matrix(1.3333333,0,0,-1.3333333,481.2576,408.18933)" /><path
       id="path77"
       d="M 0,0 V 10.147"
       style="fill:none;stroke:#231f20;stroke-width:0.25;stroke-linecap:butt;stroke-linejoin:miter;stroke-miterlimit:10;stroke-dasharray:none;stroke-opacity:1"
       transform="matrix(1.3333333,0,0,-1.3333333,481.2576,421.8848)" /><path
       id="path78"
       d="M 0,0 H 100.063"
       style="fill:none;stroke:#231f20;stroke-width:3;stroke-linecap:butt;stroke-linejoin:miter;stroke-miterlimit:10;stroke-dasharray:none;stroke-opacity:1"
       transform="matrix(1.3333333,0,0,-1.3333333,278.29693,254.81293)" /><path
       id="path79"
       d="M 0,0 H 26.079"
       style="fill:none;stroke:#231f20;stroke-width:3;stroke-linecap:butt;stroke-linejoin:miter;stroke-miterlimit:10;stroke-dasharray:none;stroke-opacity:1"
       transform="matrix(1.3333333,0,0,-1.3333333,411.71427,254.81293)" /><path
       id="path80"
       d="M 0,0 H 26.079"
       style="fill:none;stroke:#231f20;stroke-width:3;stroke-linecap:butt;stroke-linejoin:miter;stroke-miterlimit:10;stroke-dasharray:none;stroke-opacity:1"
       transform="matrix(1.3333333,0,0,-1.3333333,446.48587,254.81293)" /><path
       id="path81"
       d="M 0,0 H 25.795"
       style="fill:none;stroke:#231f20;stroke-width:3;stroke-linecap:butt;stroke-linejoin:miter;stroke-miterlimit:10;stroke-dasharray:none;stroke-opacity:1"
       transform="matrix(1.3333333,0,0,-1.3333333,481.2576,254.81293)" /><path
       id="path82"
       d="M 0,0 H 100.063"
       style="fill:none;stroke:#231f20;stroke-width:1;stroke-linecap:butt;stroke-linejoin:miter;stroke-miterlimit:10;stroke-dasharray:none;stroke-opacity:1"
       transform="matrix(1.3333333,0,0,-1.3333333,278.29693,422.55147)" /><path
       id="path83"
       d="M 0,0 H 26.079"
       style="fill:none;stroke:#231f20;stroke-width:1;stroke-linecap:butt;stroke-linejoin:miter;stroke-miterlimit:10;stroke-dasharray:none;stroke-opacity:1"
       transform="matrix(1.3333333,0,0,-1.3333333,411.71427,422.55147)" /><path
       id="path84"
       d="M 0,0 H 25.795"
       style="fill:none;stroke:#231f20;stroke-width:1;stroke-linecap:butt;stroke-linejoin:miter;stroke-miterlimit:10;stroke-dasharray:none;stroke-opacity:1"
       transform="matrix(1.3333333,0,0,-1.3333333,481.2576,422.55147)" /><path
       id="path85"
       d="M 0,0 H 26.079"
       style="fill:none;stroke:#231f20;stroke-width:1;stroke-linecap:butt;stroke-linejoin:miter;stroke-miterlimit:10;stroke-dasharray:none;stroke-opacity:1"
       transform="matrix(1.3333333,0,0,-1.3333333,446.48587,422.55147)" /><g
       id="g85"><text
         id="text85"
         xml:space="preserve"
         transform="matrix(1.3333333,0,0,1.3333333,303.39987,221.4932)"><tspan
           id="tspan85"
           style="font-variant:normal;font-weight:700;font-stretch:normal;font-size:10px;font-family:Arial;writing-mode:lr-tb;fill:#231f20;fill-opacity:1;fill-rule:nonzero;stroke:none"
           x="0"
           y="0">INFORMAÇÃO NUTRICIONAL</tspan></text></g><g
       id="g86"><text
         id="text86"
         xml:space="preserve"
         transform="matrix(1.3333333,0,0,1.3333333,278.29693,236.6388)"><tspan
           id="tspan86"
           style="font-variant:normal;font-weight:normal;font-stretch:normal;font-size:8px;font-family:Arial;writing-mode:lr-tb;fill:#231f20;fill-opacity:1;fill-rule:nonzero;stroke:none"
           x="0"
           y="0">Porções por embalagem: 000</tspan></text></g><g
       id="g87"><text
         id="text87"
         xml:space="preserve"
         transform="matrix(1.3333333,0,0,1.3333333,278.29693,249.4388)"><tspan
           id="tspan87"
           style="font-variant:normal;font-weight:normal;font-stretch:normal;font-size:8px;font-family:Arial;writing-mode:lr-tb;fill:#231f20;fill-opacity:1;fill-rule:nonzero;stroke:none"
           x="0"
           y="0">Porção: 000 g (medida caseira)</tspan></text></g><g
       id="g88"><text
         id="text88"
         xml:space="preserve"
         transform="matrix(1.3333333,0,0,1.3333333,415.46213,275.06413)"><tspan
           id="tspan88"
           style="font-variant:normal;font-weight:700;font-stretch:normal;font-size:8px;font-family:Arial;writing-mode:lr-tb;fill:#231f20;fill-opacity:1;fill-rule:nonzero;stroke:none"
           x="0"
           y="0">100 g</tspan></text></g><g
       id="g89"><text
         id="text89"
         xml:space="preserve"
         transform="matrix(1.3333333,0,0,1.3333333,450.23373,275.06413)"><tspan
           id="tspan89"
           style="font-variant:normal;font-weight:700;font-stretch:normal;font-size:8px;font-family:Arial;writing-mode:lr-tb;fill:#231f20;fill-opacity:1;fill-rule:nonzero;stroke:none"
           x="0"
           y="0">000 g</tspan></text></g><g
       id="g90"><text
         id="text90"
         xml:space="preserve"
         transform="matrix(1.3333333,0,0,1.3333333,484.3112,275.06413)"><tspan
           id="tspan90"
           style="font-variant:normal;font-weight:700;font-stretch:normal;font-size:8px;font-family:Arial;writing-mode:lr-tb;fill:#231f20;fill-opacity:1;fill-rule:nonzero;stroke:none"
           x="0"
           y="0">%VD*</tspan></text></g><g
       id="g91"><text
         id="text91"
         xml:space="preserve"
         transform="matrix(1.3333333,0,0,1.3333333,278.29693,289.9932)"><tspan
           id="tspan91"
           style="font-variant:normal;font-weight:normal;font-stretch:normal;font-size:8px;font-family:Arial;writing-mode:lr-tb;fill:#231f20;fill-opacity:1;fill-rule:nonzero;stroke:none"
           x="0"
           dx="0 -0.59359998"
           y="0">Valor energético (kcal)</tspan></text></g><g
       id="g92"><text
         id="text92"
         xml:space="preserve"
         transform="matrix(1.3333333,0,0,1.3333333,278.29693,304.35547)"><tspan
           id="tspan92"
           style="font-variant:normal;font-weight:normal;font-stretch:normal;font-size:8px;font-family:Arial;writing-mode:lr-tb;fill:#231f20;fill-opacity:1;fill-rule:nonzero;stroke:none"
           x="0"
           y="0">Carboidratos (g)</tspan></text></g><g
       id="g93"><text
         id="text93"
         xml:space="preserve"
         transform="matrix(1.3333333,0,0,1.3333333,282.8324,318.71773)"><tspan
           id="tspan93"
           style="font-variant:normal;font-weight:normal;font-stretch:normal;font-size:8px;font-family:Arial;writing-mode:lr-tb;fill:#231f20;fill-opacity:1;fill-rule:nonzero;stroke:none"
           x="0"
           y="0">Açúcares totais (g)</tspan></text></g><g
       id="g94"><text
         id="text94"
         xml:space="preserve"
         transform="matrix(1.3333333,0,0,1.3333333,287.36773,333.07987)"><tspan
           id="tspan94"
           style="font-variant:normal;font-weight:normal;font-stretch:normal;font-size:8px;font-family:Arial;writing-mode:lr-tb;fill:#231f20;fill-opacity:1;fill-rule:nonzero;stroke:none"
           x="0"
           y="0">Açúcares adicionados (g)</tspan></text></g><g
       id="g95"><text
         id="text95"
         xml:space="preserve"
         transform="matrix(1.3333333,0,0,1.3333333,278.29693,347.442)"><tspan
           id="tspan95"
           style="font-variant:normal;font-weight:normal;font-stretch:normal;font-size:8px;font-family:Arial;writing-mode:lr-tb;fill:#231f20;fill-opacity:1;fill-rule:nonzero;stroke:none"
           x="0"
           y="0">Proteínas (g)</tspan></text></g><g
       id="g96"><text
         id="text96"
         xml:space="preserve"
         transform="matrix(1.3333333,0,0,1.3333333,278.29693,361.80427)"><tspan
           id="tspan96"
           style="font-variant:normal;font-weight:normal;font-stretch:normal;font-size:8px;font-family:Arial;writing-mode:lr-tb;fill:#231f20;fill-opacity:1;fill-rule:nonzero;stroke:none"
           x="0"
           y="0">Gorduras totais (g)</tspan></text></g><g
       id="g97"><text
         id="text97"
         xml:space="preserve"
         transform="matrix(1.3333333,0,0,1.3333333,282.8324,376.16653)"><tspan
           id="tspan97"
           style="font-variant:normal;font-weight:normal;font-stretch:normal;font-size:8px;font-family:Arial;writing-mode:lr-tb;fill:#231f20;fill-opacity:1;fill-rule:nonzero;stroke:none"
           x="0"
           y="0">Gorduras saturadas (g)</tspan></text></g><g
       id="g98"><text
         id="text98"
         xml:space="preserve"
         transform="matrix(1.3333333,0,0,1.3333333,282.8324,390.52867)"><tspan
           id="tspan98"
           style="font-variant:normal;font-weight:normal;font-stretch:normal;font-size:8px;font-family:Arial;writing-mode:lr-tb;fill:#231f20;fill-opacity:1;fill-rule:nonzero;stroke:none"
           x="0"
           y="0">Gorduras trans (g)</tspan></text></g><g
       id="g99"><text
         id="text99"
         xml:space="preserve"
         transform="matrix(1.3333333,0,0,1.3333333,278.29693,404.8908)"><tspan
           id="tspan99"
           style="font-variant:normal;font-weight:normal;font-stretch:normal;font-size:8px;font-family:Arial;writing-mode:lr-tb;fill:#231f20;fill-opacity:1;fill-rule:nonzero;stroke:none"
           x="0"
           y="0">Fibras alimentares (g)</tspan></text></g><g
       id="g100"><text
         id="text100"
         xml:space="preserve"
         transform="matrix(1.3333333,0,0,1.3333333,278.29693,419.00307)"><tspan
           id="tspan100"
           style="font-variant:normal;font-weight:normal;font-stretch:normal;font-size:8px;font-family:Arial;writing-mode:lr-tb;fill:#231f20;fill-opacity:1;fill-rule:nonzero;stroke:none"
           x="0"
           y="0">Sódio (mg)</tspan></text></g><g
       id="g101"><text
         id="text101"
         xml:space="preserve"
         transform="matrix(1.3333333,0,0,1.3333333,278.29693,432.15507)"><tspan
           id="tspan101"
           style="font-variant:normal;font-weight:normal;font-stretch:normal;font-size:6px;font-family:Arial;writing-mode:lr-tb;fill:#231f20;fill-opacity:1;fill-rule:nonzero;stroke:none"
           x="0"
           y="0">*Percentual de valores diários fornecidos pela porção.</tspan></text></g><g
       id="g102"><path
         id="path102"
         d="M 205.952,512.47 H 389.323 V 688.568 H 205.952 Z"
         style="fill:none;stroke:#231f20;stroke-width:0.5;stroke-linecap:butt;stroke-linejoin:miter;stroke-miterlimit:4;stroke-dasharray:none;stroke-opacity:1"
         transform="matrix(1.3333333,0,0,-1.3333333,0,1122.52)" /></g></g></svg>
